# xmcd CD database file
#
# Track frame offsets:
#	150
#	16932
#	32762
#	51991
#	71075
#	85957
#	110447
#	125945
#	147489
#	164638
#	188263
#
# Disc length: 2698 seconds
#
# Revision: 0
# Processed by: cddbd v1.5.1PL0 Copyright (c) Steve Scherf et al.
# Submitted via: CDex 1.40Release
#
DISCID=9e0a880b
DTITLE=Matt Dunnam Band - Roadside Theater
DYEAR=2004
DGENRE=Country
TTITLE0=Shelter
TTITLE1=Gravel Road
TTITLE2=Bring A Storm
TTITLE3=Flatlands (w/ Joe Ely)
TTITLE4=Roadside Theater
TTITLE5=Another Time and Place
TTITLE6=Highway 12
TTITLE7=300 Miles
TTITLE8=Better Way
TTITLE9=Stevie Ray and Jack
TTITLE10=Silence
EXTD=YEAR: 2004 ID3G: 2
EXTT0=
EXTT1=
EXTT2=
EXTT3=
EXTT4=
EXTT5=
EXTT6=
EXTT7=
EXTT8=
EXTT9=
EXTT10=
PLAYORDER=
